<svg xmlns="http://www.w3.org/2000/svg" xmlns:xlink="http://www.w3.org/1999/xlink" width="630" height="630" version="1.1" viewBox="0 0 630 630"><title>PBI Logo</title><desc>Created with Sketch.</desc><defs><linearGradient id="linearGradient-1" x1="50%" x2="50%" y1="0%" y2="100%"><stop offset="0%" stop-color="#EBBB14"/><stop offset="100%" stop-color="#B25400"/></linearGradient><linearGradient id="linearGradient-2" x1="50%" x2="50%" y1="0%" y2="100%"><stop offset="0%" stop-color="#F9E583"/><stop offset="100%" stop-color="#DE9800"/></linearGradient><path id="path-3" d="M346,604 L346,630 L320,630 L153,630 C138.640597,630 127,618.359403 127,604 L127,183 C127,168.640597 138.640597,157 153,157 L320,157 C334.359403,157 346,168.640597 346,183 L346,604 Z"/><filter id="filter-4" width="136.5%" height="116.9%" x="-9.1%" y="-6.3%" filterUnits="objectBoundingBox"><feOffset dx="20" dy="10" in="SourceAlpha" result="shadowOffsetOuter1"/><feGaussianBlur in="shadowOffsetOuter1" result="shadowBlurOuter1" stdDeviation="10"/><feColorMatrix in="shadowBlurOuter1" type="matrix" values="0 0 0 0 0 0 0 0 0 0 0 0 0 0 0 0 0 0 0.0530211976 0"/></filter><linearGradient id="linearGradient-5" x1="50%" x2="50%" y1="0%" y2="100%"><stop offset="0%" stop-color="#F9E68B"/><stop offset="100%" stop-color="#F3CD32"/></linearGradient></defs><g id="PBI-Logo" fill="none" fill-rule="evenodd" stroke="none" stroke-width="1"><g id="Group" transform="translate(77.500000, 0.000000)"><rect id="Rectangle" width="219" height="630" x="256" y="0" fill="url(#linearGradient-1)" rx="26"/><g id="Combined-Shape"><use fill="#000" fill-opacity="1" filter="url(#filter-4)" xlink:href="#path-3"/><use fill="url(#linearGradient-2)" fill-rule="evenodd" xlink:href="#path-3"/></g><path id="Combined-Shape" fill="url(#linearGradient-5)" d="M219,604 L219,630 L193,630 L26,630 C11.6405965,630 1.75851975e-15,618.359403 0,604 L0,341 C-1.75851975e-15,326.640597 11.6405965,315 26,315 L193,315 C207.359403,315 219,326.640597 219,341 L219,604 Z"/></g></g></svg>