<svg xmlns="http://www.w3.org/2000/svg" xmlns:svg="http://www.w3.org/2000/svg" id="svg31" width="64" height="64" version="1.1" viewBox="0 0 64 64"><metadata id="metadata37"/><title id="title2">logo-informatica</title><desc id="desc4">Created with Sketch.</desc><polygon id="Fill-1" points="34.294 45.022 57.257 58.038 58.113 48.142 51.738 41.259 42.329 39.684" transform="matrix(0.838338,0,0,0.8270135,0,-5.3755877e-4)" style="fill:#ff4d00;fill-rule:evenodd;stroke:none;stroke-width:1"/><polygon id="Fill-2" points="38.17 .001 57.257 58.039 76.342 38.692" transform="matrix(0.838338,0,0,0.8270135,0,-5.3755877e-4)" style="fill:#ff7d00;fill-rule:evenodd;stroke:none;stroke-width:1"/><polygon id="Fill-3" points="35.1 30.741 34.295 45.023 63.625 38.694" transform="matrix(0.838338,0,0,0.8270135,0,-5.3755877e-4)" style="fill:#001aff;fill-rule:evenodd;stroke:none;stroke-width:1"/><polygon id="Fill-4" points="20.381 59.353 24.177 54.2 23.494 48.009 14.142 41.857 .001 38.695" transform="matrix(0.838338,0,0,0.8270135,0,-5.3755877e-4)" style="fill:#e23400;fill-rule:evenodd;stroke:none;stroke-width:1"/><polygon id="Fill-5" points="0 38.694 23.493 48.009 36.106 2.096" transform="matrix(0.838338,0,0,0.8270135,0,-5.3755877e-4)" style="fill:#ff4d00;fill-rule:evenodd;stroke:none;stroke-width:1"/><polygon id="Fill-6" points="23.494 48.009 20.381 59.353 38.17 77.388 54.887 60.444" transform="matrix(0.838338,0,0,0.8270135,0,-5.3755877e-4)" style="fill:#ff7d00;fill-rule:evenodd;stroke:none;stroke-width:1"/></svg>